<svg xmlns="http://www.w3.org/2000/svg" viewBox="0 0 680 304" width="680" height="304" role="img" aria-label="Wall time 28.5 s in R, 3.25 s in Rust on one thread, 1.37 s on eight. Peak memory 953 MiB in R, 207 MiB in Rust."><style>text{font-family:-apple-system, BlinkMacSystemFont, 'Segoe UI', Helvetica, Arial, sans-serif;font-size:13px}.h{font-weight:600;font-size:14px}.v{font-weight:600}.c{font-size:11.5px}</style><rect x="150" y="6" width="12" height="12" rx="2" fill="#3987e5"/><text x="168.0" y="16.5" class="" fill="#c3c2b7" text-anchor="start">methylTFR (R)</text><rect x="280" y="6" width="12" height="12" rx="2" fill="#d95926"/><text x="298.0" y="16.5" class="" fill="#c3c2b7" text-anchor="start">methylTFR-rs (Rust)</text><text x="150.0" y="52.0" class="h" fill="#ffffff" text-anchor="start">Wall time</text><text x="138.0" y="81.5" class="" fill="#c3c2b7" text-anchor="end">R, 1 thread</text><path d="M150,66 h356.0 a4,4 0 0 1 4,4 v14 a4,4 0 0 1 -4,4 h-356.0 z" fill="#3987e5"/><text x="520.0" y="81.5" class="v" fill="#ffffff" text-anchor="start">28.5 s</text><text x="138.0" y="117.5" class="" fill="#c3c2b7" text-anchor="end">Rust, 1 thread</text><path d="M150,102 h37.1 a4,4 0 0 1 4,4 v14 a4,4 0 0 1 -4,4 h-37.1 z" fill="#d95926"/><text x="201.1" y="117.5" class="v" fill="#ffffff" text-anchor="start">3.25 s</text><text x="252.7" y="117.5" class="" fill="#c3c2b7" text-anchor="start">8.8× faster</text><text x="138.0" y="153.5" class="" fill="#c3c2b7" text-anchor="end">Rust, 8 threads</text><path d="M150,138 h13.3 a4,4 0 0 1 4,4 v14 a4,4 0 0 1 -4,4 h-13.3 z" fill="#d95926"/><text x="177.3" y="153.5" class="v" fill="#ffffff" text-anchor="start">1.37 s</text><text x="228.9" y="153.5" class="" fill="#c3c2b7" text-anchor="start">20.8× faster</text><line x1="150" y1="60" x2="150" y2="166" stroke="#3a3a37"/><text x="150.0" y="196.0" class="h" fill="#ffffff" text-anchor="start">Peak memory</text><text x="138.0" y="225.5" class="" fill="#c3c2b7" text-anchor="end">R</text><path d="M150,210 h356.0 a4,4 0 0 1 4,4 v14 a4,4 0 0 1 -4,4 h-356.0 z" fill="#3987e5"/><text x="520.0" y="225.5" class="v" fill="#ffffff" text-anchor="start">953 MiB</text><text x="138.0" y="261.5" class="" fill="#c3c2b7" text-anchor="end">Rust</text><path d="M150,246 h74.2 a4,4 0 0 1 4,4 v14 a4,4 0 0 1 -4,4 h-74.2 z" fill="#d95926"/><text x="238.2" y="261.5" class="v" fill="#ffffff" text-anchor="start">207 MiB</text><text x="297.4" y="261.5" class="" fill="#c3c2b7" text-anchor="start">4.6× less</text><line x1="150" y1="204" x2="150" y2="274" stroke="#3a3a37"/><text x="150.0" y="298.0" class="c" fill="#c3c2b7" text-anchor="start">2M methylation sites, 50 motifs, synthetic data. Median of three runs, AMD Ryzen 7 3700X.</text></svg>
